REM DIRINDEX 1\8,1\2\11,1\3\12,1\3\14,1\5\15,1\5\16,1\6\17,1\6\18,1\4\19,1\4\20,1\4\21,1\4\22,1\7\23,1\7\24,1\7\25,1\2\9\26,1\2\9\27,1\2\10\28,1\2\10\29,1\2\10\30,1\2\10\31,1\2\10\32,1\3\13\33,1\3\13\34,1\3\13\35
REM DIRNAME folder01,folder02,folder03,folder04,folder05,folder06,folder07,folder08,folder09,folder10,folder11,folder12,folder13,folder14,folder15,folder16,folder17,folder18,folder19,folder20,folder21,folder22,folder23,folder24,folder25,folder26,folder27,folder28,folder29,folder30,folder31,folder32,folder33,folder34,folder35
TITLE ""
FILE "100 100_UNIT4_SET5.mp3" MP3
  TRACK 01 AUDIO
    TITLE "14:cjc123_1593"
    INDEX 01 00:00:00
  TRACK 02 AUDIO
    TITLE "0:"
    INDEX 01 00:02:55
  TRACK 03 AUDIO
    TITLE "33:cjc123_1594"
    INDEX 01 00:03:33
  TRACK 04 AUDIO
    TITLE "0:"
    INDEX 01 00:04:48
  TRACK 05 AUDIO
    TITLE "34:cjc123_1595"
    INDEX 01 00:05:01
  TRACK 06 AUDIO
    TITLE "0:"
    INDEX 01 00:06:12
  TRACK 07 AUDIO
    TITLE "35:cjc123_1596"
    INDEX 01 00:06:61
  TRACK 08 AUDIO
    TITLE "0:"
    INDEX 01 00:10:35
  TRACK 09 AUDIO
    TITLE "33:cjc123_1597"
    INDEX 01 00:11:17
  TRACK 10 AUDIO
    TITLE "0:"
    INDEX 01 00:12:22
  TRACK 11 AUDIO
    TITLE "34:cjc123_1598"
    INDEX 01 00:12:34
  TRACK 12 AUDIO
    TITLE "0:"
    INDEX 01 00:13:28
  TRACK 13 AUDIO
    TITLE "35:cjc123_1599"
    INDEX 01 00:14:04
  TRACK 14 AUDIO
    TITLE "0:"
    INDEX 01 00:20:00
  TRACK 15 AUDIO
    TITLE "33:cjc123_1600"
    INDEX 01 00:20:57
  TRACK 16 AUDIO
    TITLE "0:"
    INDEX 01 00:22:15
  TRACK 17 AUDIO
    TITLE "34:cjc123_1601"
    INDEX 01 00:22:42
  TRACK 18 AUDIO
    TITLE "0:"
    INDEX 01 00:23:63
  TRACK 19 AUDIO
    TITLE "35:cjc123_1602"
    INDEX 01 00:24:35
  TRACK 20 AUDIO
    TITLE "0:"
    INDEX 01 00:29:40
  TRACK 21 AUDIO
    TITLE "33:cjc123_1603"
    INDEX 01 00:30:12
  TRACK 22 AUDIO
    TITLE "0:"
    INDEX 01 00:31:20
  TRACK 23 AUDIO
    TITLE "34:cjc123_1604"
    INDEX 01 00:31:37
  TRACK 24 AUDIO
    TITLE "0:"
    INDEX 01 00:32:37
  TRACK 25 AUDIO
    TITLE "35:cjc123_1605"
    INDEX 01 00:33:09
  TRACK 26 AUDIO
    TITLE "0:"
    INDEX 01 00:36:52
  TRACK 27 AUDIO
    TITLE "33:cjc123_1606"
    INDEX 01 00:37:28
  TRACK 28 AUDIO
    TITLE "0:"
    INDEX 01 00:38:22
  TRACK 29 AUDIO
    TITLE "34:cjc123_1607"
    INDEX 01 00:38:41
  TRACK 30 AUDIO
    TITLE "0:"
    INDEX 01 00:39:35
  TRACK 31 AUDIO
    TITLE "35:cjc123_1608"
    INDEX 01 00:40:09
  TRACK 32 AUDIO
    TITLE "0:"
    INDEX 01 00:44:52
  TRACK 33 AUDIO
    TITLE "33:cjc123_1609"
    INDEX 01 00:45:28
  TRACK 34 AUDIO
    TITLE "0:"
    INDEX 01 00:46:35
  TRACK 35 AUDIO
    TITLE "34:cjc123_1610"
    INDEX 01 00:46:64
  TRACK 36 AUDIO
    TITLE "0:"
    INDEX 01 00:47:64
  TRACK 37 AUDIO
    TITLE "35:cjc123_1611"
    INDEX 01 00:48:40
  TRACK 38 AUDIO
    TITLE "0:"
    INDEX 01 00:51:46
  TRACK 39 AUDIO
    TITLE "33:cjc123_1612"
    INDEX 01 00:52:28
  TRACK 40 AUDIO
    TITLE "0:"
    INDEX 01 00:53:27
  TRACK 41 AUDIO
    TITLE "34:cjc123_1613"
    INDEX 01 00:53:53
  TRACK 42 AUDIO
    TITLE "0:"
    INDEX 01 00:54:44
  TRACK 43 AUDIO
    TITLE "35:cjc123_1614"
    INDEX 01 00:55:20
  TRACK 44 AUDIO
    TITLE "0:"
    INDEX 01 01:00:66
  TRACK 45 AUDIO
    TITLE "33:cjc123_1615"
    INDEX 01 01:01:60
  TRACK 46 AUDIO
    TITLE "0:"
    INDEX 01 01:03:29
  TRACK 47 AUDIO
    TITLE "34:cjc123_1616"
    INDEX 01 01:03:59
  TRACK 48 AUDIO
    TITLE "0:"
    INDEX 01 01:05:13
  TRACK 49 AUDIO
    TITLE "35:cjc123_1617"
    INDEX 01 01:06:04
  TRACK 50 AUDIO
    TITLE "0:"
    INDEX 01 01:11:52
  TRACK 51 AUDIO
    TITLE "33:cjc123_1618"
    INDEX 01 01:12:34
  TRACK 52 AUDIO
    TITLE "0:"
    INDEX 01 01:13:53
  TRACK 53 AUDIO
    TITLE "34:cjc123_1619"
    INDEX 01 01:14:10
  TRACK 54 AUDIO
    TITLE "0:"
    INDEX 01 01:15:21
  TRACK 55 AUDIO
    TITLE "35:cjc123_1620"
    INDEX 01 01:15:72
  TRACK 56 AUDIO
    TITLE "0:"
    INDEX 01 01:19:64
  TRACK 57 AUDIO
    TITLE "33:cjc123_1621"
    INDEX 01 01:20:44
  TRACK 58 AUDIO
    TITLE "0:"
    INDEX 01 01:21:57
  TRACK 59 AUDIO
    TITLE "34:cjc123_1622"
    INDEX 01 01:21:69
  TRACK 60 AUDIO
    TITLE "0:"
    INDEX 01 01:23:03
  TRACK 61 AUDIO
    TITLE "35:cjc123_1623"
    INDEX 01 01:23:52
  TRACK 62 AUDIO
    TITLE "0:"
    INDEX 01 01:27:16
  TRACK 63 AUDIO
    TITLE "33:cjc123_1624"
    INDEX 01 01:28:00
  TRACK 64 AUDIO
    TITLE "0:"
    INDEX 01 01:29:13
  TRACK 65 AUDIO
    TITLE "34:cjc123_1625"
    INDEX 01 01:29:23
  TRACK 66 AUDIO
    TITLE "0:"
    INDEX 01 01:30:36
  TRACK 67 AUDIO
    TITLE "35:cjc123_1626"
    INDEX 01 01:31:10
  TRACK 68 AUDIO
    TITLE "0:"
    INDEX 01 01:35:73
  TRACK 69 AUDIO
    TITLE "33:cjc123_1627"
    INDEX 01 01:36:56
  TRACK 70 AUDIO
    TITLE "0:"
    INDEX 01 01:37:52
  TRACK 71 AUDIO
    TITLE "34:cjc123_1628"
    INDEX 01 01:37:64
  TRACK 72 AUDIO
    TITLE "0:"
    INDEX 01 01:38:57
  TRACK 73 AUDIO
    TITLE "35:cjc123_1629"
    INDEX 01 01:39:35
  TRACK 74 AUDIO
    TITLE "0:"
    INDEX 01 01:45:38
  TRACK 75 AUDIO
    TITLE "33:cjc123_1630"
    INDEX 01 01:46:16
  TRACK 76 AUDIO
    TITLE "0:"
    INDEX 01 01:47:31
  TRACK 77 AUDIO
    TITLE "34:cjc123_1631"
    INDEX 01 01:47:42
  TRACK 78 AUDIO
    TITLE "0:"
    INDEX 01 01:48:61
  TRACK 79 AUDIO
    TITLE "35:cjc123_1632"
    INDEX 01 01:49:37
  TRACK 80 AUDIO
    TITLE "0:"
    INDEX 01 01:54:01
  TRACK 81 AUDIO
    TITLE "33:cjc123_1633"
    INDEX 01 01:54:50
  TRACK 82 AUDIO
    TITLE "0:"
    INDEX 01 01:56:22
  TRACK 83 AUDIO
    TITLE "34:cjc123_1634"
    INDEX 01 01:56:39
  TRACK 84 AUDIO
    TITLE "0:"
    INDEX 01 01:57:68
  TRACK 85 AUDIO
    TITLE "35:cjc123_1635"
    INDEX 01 01:58:42
  TRACK 86 AUDIO
    TITLE "0:"
    INDEX 01 02:04:72
  TRACK 87 AUDIO
    TITLE "33:cjc123_1636"
    INDEX 01 02:05:58
  TRACK 88 AUDIO
    TITLE "0:"
    INDEX 01 02:06:55
  TRACK 89 AUDIO
    TITLE "34:cjc123_1637"
    INDEX 01 02:06:69
  TRACK 90 AUDIO
    TITLE "0:"
    INDEX 01 02:07:69
  TRACK 91 AUDIO
    TITLE "35:cjc123_1638"
    INDEX 01 02:08:45
  TRACK 92 AUDIO
    TITLE "0:"
    INDEX 01 02:11:70
